<svg class="sr-only">
  <defs>
    <g id="ic-search">
      <path d="M23 23L15.6667 15.6667M18.1112 9.55555C18.1112 10.6791 17.8898 11.7916 17.4598 12.8297C17.0299 13.8677 16.3997 14.8107 15.6052 15.6052C14.8107 16.3997 13.8677 17.0299 12.8297 17.4598C11.7916 17.8898 10.6791 18.1112 9.55555 18.1112C8.43203 18.1112 7.3195 17.8898 6.28148 17.4598C5.24348 17.0299 4.30032 16.3997 3.50586 15.6052C2.71141 14.8107 2.08121 13.8677 1.65126 12.8297C1.22129 11.7916 1 10.6791 1 9.55555C1 7.28649 1.90138 5.11035 3.50586 3.50586C5.11035 1.90138 7.28649 1 9.55555 1C11.8246 1 14.0008 1.90138 15.6052 3.50586C17.2097 5.11035 18.1112 7.28649 18.1112 9.55555Z" stroke="white" stroke-width="2" stroke-linecap="round" stroke-linejoin="round"/>
    </g>

    <g id="ic-settings">
      <path d="M11.9945 15.4962C13.8161 15.4962 15.2929 13.931 15.2929 12.0001C15.2929 10.0692 13.8161 8.5039 11.9945 8.5039C10.1729 8.5039 8.69615 10.0692 8.69615 12.0001C8.69615 13.931 10.1729 15.4962 11.9945 15.4962Z" stroke="white" stroke-width="1.5" stroke-miterlimit="10" stroke-linecap="round" stroke-linejoin="round"/>
      <path d="M1 13.0255V10.9745C1 9.76245 1.93453 8.76022 3.08896 8.76022C5.07896 8.76022 5.89255 7.26852 4.89205 5.43886C4.32034 4.39 4.66117 3.0265 5.66167 2.4205L7.56372 1.26676C8.43228 0.719026 9.55372 1.04534 10.0705 1.96599L10.1914 2.18742C11.1809 4.01708 12.8081 4.01708 13.8086 2.18742L13.9295 1.96599C14.4463 1.04534 15.5677 0.719026 16.4363 1.26676L18.3383 2.4205C19.3388 3.0265 19.6797 4.39 19.1079 5.43886C18.1074 7.26852 18.921 8.76022 20.911 8.76022C22.0545 8.76022 23 9.7508 23 10.9745V13.0255C23 14.2375 22.0655 15.2398 20.911 15.2398C18.921 15.2398 18.1074 16.7315 19.1079 18.5611C19.6797 19.6216 19.3388 20.9735 18.3383 21.5795L16.4363 22.7332C15.5677 23.281 14.4463 22.9547 13.9295 22.034L13.8086 21.8126C12.8191 19.9829 11.1919 19.9829 10.1914 21.8126L10.0705 22.034C9.55372 22.9547 8.43228 23.281 7.56372 22.7332L5.66167 21.5795C4.66117 20.9735 4.32034 19.61 4.89205 18.5611C5.89255 16.7315 5.07896 15.2398 3.08896 15.2398C1.93453 15.2398 1 14.2375 1 13.0255Z" stroke="white" stroke-width="1.5" stroke-miterlimit="10" stroke-linecap="round" stroke-linejoin="round"/>
    </g>
  </defs>
</svg>
