<svg class="sr-only">
  <defs>
    <g id="ic-apps">
      <path
        d="M3.88235 9.23529H6.35294C8.41176 9.23529 9.23529 8.41176 9.23529 6.35294V3.88235C9.23529 1.82353 8.41176 1 6.35294 1H3.88235C1.82353 1 1 1.82353 1 3.88235V6.35294C1 8.41176 1.82353 9.23529 3.88235 9.23529Z"
        stroke="white"
        stroke-width="1.5"
        stroke-linecap="round"
        stroke-linejoin="round"
      />
      <path
        d="M15.6471 9.23529H18.1176C20.1765 9.23529 21 8.41176 21 6.35294V3.88235C21 1.82353 20.1765 1 18.1176 1H15.6471C13.5882 1 12.7647 1.82353 12.7647 3.88235V6.35294C12.7647 8.41176 13.5882 9.23529 15.6471 9.23529Z"
        stroke="white"
        stroke-width="1.5"
        stroke-linecap="round"
        stroke-linejoin="round"
      />
      <path
        d="M3.88235 21H6.35294C8.41176 21 9.23529 20.1765 9.23529 18.1176V15.6471C9.23529 13.5882 8.41176 12.7647 6.35294 12.7647H3.88235C1.82353 12.7647 1 13.5882 1 15.6471V18.1176C1 20.1765 1.82353 21 3.88235 21Z"
        stroke="white"
        stroke-width="1.5"
        stroke-linecap="round"
        stroke-linejoin="round"
      />
      <path
        d="M15.6471 21H18.1176C20.1765 21 21 20.1765 21 18.1176V15.6471C21 13.5882 20.1765 12.7647 18.1176 12.7647H15.6471C13.5882 12.7647 12.7647 13.5882 12.7647 15.6471V18.1176C12.7647 20.1765 13.5882 21 15.6471 21Z"
        stroke="white"
        stroke-width="1.5"
        stroke-linecap="round"
        stroke-linejoin="round"
      />
    </g>

    <g id="ic-account">
      <path
        d="M15.2013 12.0912C16.4319 12.6729 17.4812 13.5783 18.2369 14.7105C18.9926 15.8427 19.4262 17.1591 19.4913 18.5187C19.4998 18.6433 19.4834 18.7683 19.4431 18.8865C19.4027 19.0046 19.3391 19.1135 19.256 19.2067C19.173 19.3 19.0721 19.3757 18.9594 19.4294C18.8467 19.4831 18.7244 19.5138 18.5997 19.5196C18.475 19.5255 18.3504 19.5063 18.2332 19.4633C18.1159 19.4203 18.0085 19.3544 17.9171 19.2693C17.8257 19.1842 17.7523 19.0817 17.701 18.9679C17.6498 18.854 17.6218 18.7311 17.6188 18.6062C17.5506 17.1619 16.9289 15.7993 15.8826 14.8012C14.8364 13.8032 13.446 13.2463 12 13.2463C10.5541 13.2463 9.16364 13.8032 8.11738 14.8012C7.07113 15.7993 6.4494 17.1619 6.38125 18.6062C6.36441 18.8507 6.25252 19.0789 6.06953 19.2419C5.88654 19.4049 5.647 19.4897 5.40221 19.4783C5.15742 19.4669 4.92684 19.36 4.75984 19.1807C4.59285 19.0013 4.50272 18.7637 4.50875 18.5187C4.57358 17.1592 5.00692 15.8429 5.76238 14.7106C6.51784 13.5784 7.56699 12.673 8.7975 12.0912C8.00877 11.4334 7.44183 10.5485 7.17382 9.55697C6.9058 8.56546 6.94972 7.51546 7.29958 6.54979C7.64945 5.58412 8.28829 4.74967 9.12921 4.15993C9.97012 3.5702 10.9723 3.25381 11.9994 3.25381C13.0265 3.25381 14.0286 3.5702 14.8695 4.15993C15.7105 4.74967 16.3493 5.58412 16.6992 6.54979C17.049 7.51546 17.093 8.56546 16.8249 9.55697C16.5569 10.5485 15.99 11.4334 15.2013 12.0912ZM15.125 8.25C15.125 7.4212 14.7958 6.62634 14.2097 6.04029C13.6237 5.45424 12.8288 5.125 12 5.125C11.1712 5.125 10.3763 5.45424 9.79029 6.04029C9.20424 6.62634 8.875 7.4212 8.875 8.25C8.875 9.0788 9.20424 9.87366 9.79029 10.4597C10.3763 11.0458 11.1712 11.375 12 11.375C12.8288 11.375 13.6237 11.0458 14.2097 10.4597C14.7958 9.87366 15.125 9.0788 15.125 8.25Z"
        fill="white"
      />
    </g>

    <g id="ic-search">
      <path
        d="M23 23L15.6667 15.6667M18.1112 9.55555C18.1112 10.6791 17.8898 11.7916 17.4598 12.8297C17.0299 13.8677 16.3997 14.8107 15.6052 15.6052C14.8107 16.3997 13.8677 17.0299 12.8297 17.4598C11.7916 17.8898 10.6791 18.1112 9.55555 18.1112C8.43203 18.1112 7.3195 17.8898 6.28148 17.4598C5.24348 17.0299 4.30032 16.3997 3.50586 15.6052C2.71141 14.8107 2.08121 13.8677 1.65126 12.8297C1.22129 11.7916 1 10.6791 1 9.55555C1 7.28649 1.90138 5.11035 3.50586 3.50586C5.11035 1.90138 7.28649 1 9.55555 1C11.8246 1 14.0008 1.90138 15.6052 3.50586C17.2097 5.11035 18.1112 7.28649 18.1112 9.55555Z"
        stroke="white"
        stroke-width="2"
        stroke-linecap="round"
        stroke-linejoin="round"
      />
    </g>

    <g id="ic-language">
      <path
        d="M10 0C12.6522 0 15.1957 1.05357 17.0711 2.92893C18.9464 4.8043 20 7.34784 20 10C20 12.6522 18.9464 15.1957 17.0711 17.0711C15.1957 18.9464 12.6522 20 10 20C7.34784 20 4.8043 18.9464 2.92893 17.0711C1.05357 15.1957 0 12.6522 0 10C0 7.34784 1.05357 4.8043 2.92893 2.92893C4.8043 1.05357 7.34784 0 10 0ZM7.225 10.9375C7.38343 12.7859 7.96649 14.5727 8.92875 16.1588C9.2475 16.6913 9.60625 17.1988 10 17.6775C10.3063 17.3075 10.6888 16.7963 11.0713 16.1588C12.0335 14.5727 12.6166 12.7859 12.775 10.9375H7.225ZM12.775 9.0625C12.6166 7.21414 12.0335 5.42731 11.0713 3.84125C10.6875 3.20375 10.3063 2.6925 10 2.3225C9.60545 2.80126 9.24737 3.30893 8.92875 3.84125C7.96649 5.42731 7.38343 7.21414 7.225 9.0625H12.775ZM5.345 10.9375H1.92875C2.11461 12.5309 2.7675 14.0338 3.8053 15.257C4.84309 16.4803 6.21945 17.3694 7.76125 17.8125C7.6075 17.5863 7.46125 17.3562 7.32125 17.1225C6.4275 15.6325 5.525 13.53 5.345 10.9375ZM1.92875 9.0625H5.345C5.525 6.47 6.4275 4.3675 7.32 2.8775C7.47 2.63125 7.61625 2.40125 7.76125 2.1875C6.21945 2.63057 4.84309 3.51966 3.8053 4.74295C2.7675 5.96624 2.11461 7.4691 1.92875 9.0625ZM14.655 10.9375C14.475 13.53 13.5725 15.6325 12.68 17.1225C12.53 17.3687 12.3838 17.5987 12.2388 17.8125C13.7806 17.3694 15.1569 16.4803 16.1947 15.257C17.2325 14.0338 17.8854 12.5309 18.0712 10.9375H14.655ZM18.0712 9.0625C17.8854 7.4691 17.2325 5.96624 16.1947 4.74295C15.1569 3.51966 13.7806 2.63057 12.2388 2.1875C12.3925 2.41375 12.5388 2.64375 12.68 2.8775C13.5725 4.3675 14.475 6.47 14.655 9.0625H18.0712Z"
        fill="white"
      />
    </g>

    <g id="ic-gist">
      <path
        d="M2 4.1875C2 2.98 2.98 2 4.1875 2H19.8125C21.02 2 22 2.98 22 4.1875V19.8125C22 20.3927 21.7695 20.9491 21.3593 21.3593C20.9491 21.7695 20.3927 22 19.8125 22H4.1875C3.60734 22 3.05094 21.7695 2.6407 21.3593C2.23047 20.9491 2 20.3927 2 19.8125V4.1875ZM4.1875 3.875C4.10462 3.875 4.02513 3.90792 3.96653 3.96653C3.90792 4.02513 3.875 4.10462 3.875 4.1875V19.8125C3.875 19.985 4.015 20.125 4.1875 20.125H19.8125C19.8954 20.125 19.9749 20.0921 20.0335 20.0335C20.0921 19.9749 20.125 19.8954 20.125 19.8125V4.1875C20.125 4.10462 20.0921 4.02513 20.0335 3.96653C19.9749 3.90792 19.8954 3.875 19.8125 3.875H4.1875ZM13.525 8.8375C13.7008 8.66194 13.9391 8.56332 14.1875 8.56332C14.4359 8.56332 14.6742 8.66194 14.85 8.8375L17.35 11.3375C17.5256 11.5133 17.6242 11.7516 17.6242 12C17.6242 12.2484 17.5256 12.4867 17.35 12.6625L14.85 15.1625C14.7354 15.2859 14.5897 15.3761 14.4281 15.4236C14.2665 15.4712 14.0951 15.4742 13.932 15.4325C13.7688 15.3908 13.62 15.3058 13.501 15.1866C13.3821 15.0674 13.2975 14.9183 13.2563 14.755C13.2145 14.592 13.2174 14.4208 13.2647 14.2594C13.312 14.0979 13.4019 13.9522 13.525 13.8375L15.3625 12L13.525 10.1625C13.3494 9.98672 13.2508 9.74844 13.2508 9.5C13.2508 9.25156 13.3494 9.01328 13.525 8.8375ZM10.475 10.1625L8.6375 12L10.475 13.8375C10.5984 13.9521 10.6886 14.0978 10.7361 14.2594C10.7837 14.421 10.7867 14.5924 10.745 14.7555C10.7033 14.9187 10.6183 15.0675 10.4991 15.1865C10.3799 15.3054 10.2308 15.39 10.0675 15.4312C9.90453 15.473 9.73332 15.4701 9.57186 15.4228C9.41041 15.3755 9.26468 15.2856 9.15 15.1625L6.65 12.6625C6.47444 12.4867 6.37582 12.2484 6.37582 12C6.37582 11.7516 6.47444 11.5133 6.65 11.3375L9.15 8.8375C9.32783 8.67199 9.56289 8.58186 9.80579 8.58606C10.0487 8.59025 10.2805 8.68845 10.4525 8.86C10.6241 9.032 10.7222 9.26382 10.7264 9.50671C10.7306 9.74961 10.6405 9.98467 10.475 10.1625Z"
        fill="white"
      />
    </g>

    <g id="ic-experiments">
      <path
        d="M8.24999 9.2275V5.125H7.93749C7.68885 5.125 7.4504 5.02623 7.27458 4.85041C7.09877 4.6746 6.99999 4.43614 6.99999 4.1875C6.99999 3.93886 7.09877 3.7004 7.27458 3.52459C7.4504 3.34877 7.68885 3.25 7.93749 3.25H16.0625C16.3111 3.25 16.5496 3.34877 16.7254 3.52459C16.9012 3.7004 17 3.93886 17 4.1875C17 4.43614 16.9012 4.6746 16.7254 4.85041C16.5496 5.02623 16.3111 5.125 16.0625 5.125H15.75V9.2275L20.3325 16.4275C21.5237 18.3 20.1787 20.75 17.9587 20.75H6.04125C3.82125 20.75 2.47624 18.3 3.66749 16.4275L8.24999 9.2275ZM5.24999 17.4338C5.15967 17.5755 5.10913 17.7389 5.10365 17.9069C5.09817 18.0749 5.13796 18.2413 5.21885 18.3887C5.29975 18.536 5.41876 18.6589 5.56345 18.7445C5.70813 18.83 5.87316 18.8751 6.04125 18.875H17.9587C18.1268 18.8751 18.2919 18.83 18.4365 18.7445C18.5812 18.6589 18.7002 18.536 18.7811 18.3887C18.862 18.2413 18.9018 18.0749 18.8963 17.9069C18.8909 17.7389 18.8403 17.5755 18.75 17.4338L17.2812 15.125H6.71874L5.24999 17.4338ZM13.875 5.125H10.125V9.5C10.125 9.67875 10.075 9.85375 9.97875 10.0037L7.91249 13.25H16.0875L14.0212 10.0037C13.9253 9.85329 13.8745 9.67845 13.875 9.5V5.125Z"
        fill="white"
      />
    </g>

    <g id="ic-projects">
      <path
        d="M4.1875 2H19.8125C21.02 2 22 2.98 22 4.1875V19.8125C22 20.3927 21.7695 20.9491 21.3593 21.3593C20.9491 21.7695 20.3927 22 19.8125 22H4.1875C3.60734 22 3.05094 21.7695 2.6407 21.3593C2.23047 20.9491 2 20.3927 2 19.8125V4.1875C2 2.98 2.98 2 4.1875 2ZM3.875 4.1875V19.8125C3.875 19.985 4.015 20.125 4.1875 20.125H19.8125C19.8954 20.125 19.9749 20.0921 20.0335 20.0335C20.0921 19.9749 20.125 19.8954 20.125 19.8125V4.1875C20.125 4.10462 20.0921 4.02513 20.0335 3.96653C19.9749 3.90792 19.8954 3.875 19.8125 3.875H4.1875C4.10462 3.875 4.02513 3.90792 3.96653 3.96653C3.90792 4.02513 3.875 4.10462 3.875 4.1875ZM16.6875 5.75C16.9361 5.75 17.1746 5.84877 17.3504 6.02459C17.5262 6.2004 17.625 6.43886 17.625 6.6875V16.0625C17.625 16.3111 17.5262 16.5496 17.3504 16.7254C17.1746 16.9012 16.9361 17 16.6875 17C16.4389 17 16.2004 16.9012 16.0246 16.7254C15.8488 16.5496 15.75 16.3111 15.75 16.0625V6.6875C15.75 6.43886 15.8488 6.2004 16.0246 6.02459C16.2004 5.84877 16.4389 5.75 16.6875 5.75ZM6.375 6.6875C6.375 6.43886 6.47377 6.2004 6.64959 6.02459C6.8254 5.84877 7.06386 5.75 7.3125 5.75C7.56114 5.75 7.7996 5.84877 7.97541 6.02459C8.15123 6.2004 8.25 6.43886 8.25 6.6875V13.5625C8.25 13.8111 8.15123 14.0496 7.97541 14.2254C7.7996 14.4012 7.56114 14.5 7.3125 14.5C7.06386 14.5 6.8254 14.4012 6.64959 14.2254C6.47377 14.0496 6.375 13.8111 6.375 13.5625V6.6875ZM12 5.75C12.2486 5.75 12.4871 5.84877 12.6629 6.02459C12.8387 6.2004 12.9375 6.43886 12.9375 6.6875V11.0625C12.9375 11.3111 12.8387 11.5496 12.6629 11.7254C12.4871 11.9012 12.2486 12 12 12C11.7514 12 11.5129 11.9012 11.3371 11.7254C11.1613 11.5496 11.0625 11.3111 11.0625 11.0625V6.6875C11.0625 6.43886 11.1613 6.2004 11.3371 6.02459C11.5129 5.84877 11.7514 5.75 12 5.75Z"
        fill="white"
      />
    </g>

    <g id="ic-close">
      <path
        d="M6 6L12 12M12 12L18 18M12 12L6 18M12 12L18 6"
        stroke="white"
        stroke-width="1.5"
        stroke-linecap="round"
        stroke-linejoin="round"
      />
    </g>

    <g id="ic-settings">
      <path
        d="M11.9945 15.4962C13.8161 15.4962 15.2929 13.931 15.2929 12.0001C15.2929 10.0692 13.8161 8.5039 11.9945 8.5039C10.1729 8.5039 8.69615 10.0692 8.69615 12.0001C8.69615 13.931 10.1729 15.4962 11.9945 15.4962Z"
        stroke="white"
        stroke-width="1.5"
        stroke-miterlimit="10"
        stroke-linecap="round"
        stroke-linejoin="round"
      />
      <path
        d="M1 13.0255V10.9745C1 9.76245 1.93453 8.76022 3.08896 8.76022C5.07896 8.76022 5.89255 7.26852 4.89205 5.43886C4.32034 4.39 4.66117 3.0265 5.66167 2.4205L7.56372 1.26676C8.43228 0.719026 9.55372 1.04534 10.0705 1.96599L10.1914 2.18742C11.1809 4.01708 12.8081 4.01708 13.8086 2.18742L13.9295 1.96599C14.4463 1.04534 15.5677 0.719026 16.4363 1.26676L18.3383 2.4205C19.3388 3.0265 19.6797 4.39 19.1079 5.43886C18.1074 7.26852 18.921 8.76022 20.911 8.76022C22.0545 8.76022 23 9.7508 23 10.9745V13.0255C23 14.2375 22.0655 15.2398 20.911 15.2398C18.921 15.2398 18.1074 16.7315 19.1079 18.5611C19.6797 19.6216 19.3388 20.9735 18.3383 21.5795L16.4363 22.7332C15.5677 23.281 14.4463 22.9547 13.9295 22.034L13.8086 21.8126C12.8191 19.9829 11.1919 19.9829 10.1914 21.8126L10.0705 22.034C9.55372 22.9547 8.43228 23.281 7.56372 22.7332L5.66167 21.5795C4.66117 20.9735 4.32034 19.61 4.89205 18.5611C5.89255 16.7315 5.07896 15.2398 3.08896 15.2398C1.93453 15.2398 1 14.2375 1 13.0255Z"
        stroke="white"
        stroke-width="1.5"
        stroke-miterlimit="10"
        stroke-linecap="round"
        stroke-linejoin="round"
      />
    </g>

    <g id="ic-email">
      <path
        d="M17 12C17 12.6904 17.5596 13.25 18.25 13.25C18.9404 13.25 19.5 12.6904 19.5 12C19.5 7.85786 16.1421 4.5 12 4.5C7.85786 4.5 4.5 7.85786 4.5 12C4.5 16.1421 7.85786 19.5 12 19.5C12.6904 19.5 13.25 20.0596 13.25 20.75C13.25 21.4404 12.6904 22 12 22C6.47715 22 2 17.5228 2 12C2 6.47715 6.47715 2 12 2C17.5228 2 22 6.47715 22 12C22 14.0711 20.3211 15.75 18.25 15.75C17.4058 15.75 16.6268 15.4711 16.0001 15.0004C15.0879 16.2146 13.6357 17 12 17C9.23858 17 7 14.7614 7 12C7 9.23858 9.23858 7 12 7C14.7614 7 17 9.23858 17 12ZM12 14.5C13.3807 14.5 14.5 13.3807 14.5 12C14.5 10.6193 13.3807 9.5 12 9.5C10.6193 9.5 9.5 10.6193 9.5 12C9.5 13.3807 10.6193 14.5 12 14.5Z"
        fill="white"
      />
    </g>

    <g id="ic-caret-down">
      <path fill-rule="evenodd" clip-rule="evenodd" d="M5.01636 9.85285C5.31855 9.53051 5.82482 9.51419 6.14714 9.81637L12 15.3034L17.8528 9.81637C18.1752 9.51419 18.6814 9.53051 18.9837 9.85285C19.2858 10.1752 19.2694 10.6815 18.9472 10.9836L12.5471 16.9837C12.2394 17.2722 11.7606 17.2722 11.4528 16.9837L5.05284 10.9836C4.7305 10.6815 4.71418 10.1752 5.01636 9.85285Z" fill="white"/>
    </g>
  </defs>
</svg>
